Coordinates
version=1
nRows=15
nColumns=42
inDegrees=yes

Units are S.I. units (second, meters, Newtons, ...)
If the header above contains a line with 'inDegrees', this indicates whether rotational values are in degrees (yes) or radians (no).

endheader
time	pelvis_tilt	pelvis_list	pelvis_rotation	pelvis_tx	pelvis_ty	pelvis_tz	hip_flexion_r	hip_adduction_r	hip_rotation_r	knee_angle_r	knee_adduction_r	knee_angle_r_beta	ankle_angle_r	subtalar_angle_r	mtp_angle_r	hip_flexion_l	hip_adduction_l	hip_rotation_l	knee_angle_l	knee_adduction_l	knee_angle_l_beta	ankle_angle_l	subtalar_angle_l	mtp_angle_l	lumbar_extension	lumbar_bending	lumbar_rotation	arm_flex_r	arm_add_r	arm_rot_r	elbow_flex_r	pro_sup_r	wrist_flex_r	wrist_dev_r	arm_flex_l	arm_add_l	arm_rot_l	elbow_flex_l	pro_sup_l	wrist_flex_l	wrist_dev_l
      0.00000000	     -3.98696543	     -3.56034347	      0.64328724	     -1.38501606	      0.86605662	     -0.37903445	      1.80135528	      5.07211716	     -0.71089854	      4.36280042	      6.33776652	      0.07614523	      7.58388942	      0.11985443	     -9.69315740	     23.86937647	     -6.98004195	      5.33600557	     61.29720276	      9.08234595	      1.06983801	      6.61526578	    -16.58478206	     -9.69315740	     -5.40375856	      0.44067107	      5.59969666	     -3.52040304	    -17.86266343	      6.01247471	     37.93074913	     90.00000001	      0.00000000	      0.00000000	      1.21514794	    -11.21016303	     -7.53933406	     40.14128851	     90.00000001	      0.00000000	      0.00000000
      0.01000000	     -4.01841108	     -3.48324217	      0.70601280	     -1.37488474	      0.86525770	     -0.37831359	      1.01225050	      5.15132554	     -0.59131369	      4.22427614	      6.20346111	      0.07372753	      8.27147992	      0.20620158	     -9.64262611	     25.32208707	     -6.84620140	      5.31966293	     59.41507792	      9.21251324	      1.03698874	      7.20119738	    -16.70730352	     -9.64262611	     -5.43718478	      0.23899133	      5.69322836	     -2.66811060	    -17.78567045	      5.89415491	     38.55762515	     90.00000001	      0.00000000	      0.00000000	      0.89682593	    -11.33631383	     -7.70931386	     39.79140406	     90.00000001	      0.00000000	      0.00000000
      0.02000000	     -3.96803602	     -3.39437531	      0.70755036	     -1.36463039	      0.86451337	     -0.37758956	      0.12645134	      5.22285391	     -0.47137299	      4.08586172	      6.04770300	      0.07131174	      8.86544555	      0.26973667	     -9.59473406	     26.52944445	     -6.74576406	      5.13704939	     57.30392245	      9.29045820	      1.00014212	      7.72250192	    -16.77381173	     -9.59473406	     -5.55111404	      0.02508785	      5.84424413	     -1.81054772	    -17.71340566	      5.83701531	     39.17430524	     90.00000001	      0.00000000	      0.00000000	      0.60834829	    -11.43960659	     -7.97193706	     39.42900189	     90.00000001	      0.00000000	      0.00000000
      0.03000000	     -4.03963432	     -3.60408357	      0.73565032	     -1.35432956	      0.86344412	     -0.37684369	     -0.49859133	      5.56873991	     -0.70678419	      4.24224772	      6.03016371	      0.07404119	      9.21414014	      0.30965073	     -9.56886675	     27.86111604	     -7.00782509	      4.62034173	     55.15222077	      9.05316758	      0.96258784	      7.92216446	    -16.40907345	     -9.56886675	     -5.51320933	      0.16346423	      5.93653689	     -0.99258969	    -17.68472480	      5.79169990	     39.78892538	     90.00000001	      0.00000000	      0.00000000	      0.18305601	    -11.54010498	     -8.04583480	     39.21040421	     90.00000001	      0.00000000	      0.00000000
      0.04000000	     -3.42290794	     -3.03549975	      0.56829558	     -1.34362265	      0.86346306	     -0.37650749	     -2.26873333	      4.97033406	      0.10730980	      3.60640672	      6.10599837	      0.06294367	      9.68836808	     -0.01863628	     -9.44920181	     27.86899838	     -6.44847732	      3.72117624	     52.18805197	      8.89562998	      0.91085334	      8.35074823	    -16.75173134	     -9.44920181	     -6.29537419	     -0.54390253	      6.20159253	     -0.08033472	    -17.60766538	      5.84055276	     40.36262726	     90.00000001	      0.00000000	      0.00000000	      0.09368356	    -11.54862643	     -8.65849532	     38.68154625	     90.00000001	      0.00000000	      0.00000000
      0.05000000	     -3.56234610	     -3.15995340	      0.50133252	     -1.33333501	      0.86221067	     -0.37577302	     -2.85617367	      5.29419479	      0.12194032	      3.67789546	      5.88630930	      0.06419139	     10.17195557	      0.05789244	     -9.41225618	     28.96141958	     -6.69057437	      2.97384049	     49.54155621	      8.68122466	      0.86466327	      8.75871407	    -16.34957176	     -9.41225618	     -6.19819948	     -0.50154810	      6.38405912	      0.68445250	    -17.60664018	      5.86784728	     40.99088948	     90.00000001	      0.00000000	      0.00000000	     -0.21201399	    -11.65314975	     -8.84743077	     38.35042873	     90.00000001	      0.00000000	      0.00000000
      0.06000000	     -3.70875930	     -3.51523750	      0.50011726	     -1.32291506	      0.86078576	     -0.37524059	     -3.39502307	      5.73216511	     -0.14716131	      3.85846625	      5.96824375	      0.06734294	     10.51769169	      0.10678387	     -9.38869101	     30.06456322	     -7.16225844	      2.07563394	     46.93191192	      8.33285564	      0.81911639	      8.87529762	    -15.80552455	     -9.38869101	     -6.07035976	     -0.16010752	      6.42948053	      1.45540620	    -17.57452471	      5.85604176	     41.61492966	     90.00000001	      0.00000000	      0.00000000	     -0.66889358	    -11.68884106	     -8.93020055	     38.10048113	     90.00000001	      0.00000000	      0.00000000
      0.07000000	     -3.36752601	     -2.99565358	      0.00010238	     -1.31232332	      0.86039204	     -0.37458515	     -4.63501292	      5.16797584	      0.67167128	      3.69062224	      5.98170514	      0.06441351	     11.18358526	      0.31969921	     -9.33668049	     29.80485940	     -6.97273638	      0.95445121	     43.11474268	      8.51386112	      0.75249422	      9.46086205	    -15.26183459	     -9.33668049	     -6.55457409	     -0.82247453	      6.98686015	      2.27607201	    -17.55151784	      6.11615056	     42.19856956	     90.00000001	      0.00000000	      0.00000000	     -0.62115650	    -11.62088084	     -9.66090435	     37.32576027	     90.00000001	      0.00000000	      0.00000000
      0.08000000	     -2.97522763	     -2.76209756	     -0.24513204	     -1.30149128	      0.85981555	     -0.37434359	     -5.91199248	      4.84806004	      0.92574676	      3.60527394	      6.13275548	      0.06292390	     11.50382562	      0.24785815	     -9.27476199	     29.57731948	     -6.88373301	     -0.46948878	     39.50596934	      8.18715373	      0.68950924	      9.50058089	    -14.41964925	     -9.27476199	     -7.05699171	     -1.13287089	      7.28864875	      3.05595795	    -17.58346075	      6.25442912	     42.76104196	     90.00000001	      0.00000000	      0.00000000	     -0.78480979	    -11.60233040	    -10.11942281	     36.89734679	     90.00000001	      0.00000000	      0.00000000
      0.09000000	     -3.17414080	     -3.11320967	     -0.29589766	     -1.29090967	      0.85818858	     -0.37393837	     -6.40117707	      5.36107509	      0.76756974	      3.80809930	      5.94750634	      0.06646387	     11.77893068	      0.29473060	     -9.24708474	     30.27069619	     -7.33861486	     -1.59163957	     36.39782016	      7.83508500	      0.63526180	      9.37518678	    -13.56879848	     -9.24708474	     -6.89019318	     -0.78876281	      7.40297419	      3.69034101	    -17.60275285	      6.30970156	     43.38093824	     90.00000001	      0.00000000	      0.00000000	     -1.17973614	    -11.62288936	    -10.25115698	     36.67614634	     90.00000001	      0.00000000	      0.00000000
      0.10000000	     -2.46033664	     -2.51432990	     -0.82625559	     -1.27973188	      0.85810747	     -0.37365761	     -8.07267970	      4.48778591	      1.42468517	      3.65152597	      6.25739144	      0.06373115	     12.12060609	      0.23908566	     -9.15839526	     29.02602037	     -7.01230305	     -2.99719667	     32.06702998	      7.92870587	      0.55967525	      9.46506697	    -12.27230191	     -9.15839526	     -7.74135897	     -1.52455977	      7.87649919	      4.49740855	    -17.58764643	      6.59374577	     43.97828336	     90.00000001	      0.00000000	      0.00000000	     -1.17468549	    -11.57177780	    -10.95582362	     35.99823279	     90.00000001	      0.00000000	      0.00000000
      0.11000000	     -2.31011055	     -2.47242528	     -1.19862804	     -1.26874199	      0.85707347	     -0.37328707	     -9.00244568	      4.36891503	      1.83283669	      3.74358677	      6.31704769	      0.06533791	     12.36389393	      0.12219888	     -9.04702375	     28.64048847	     -7.22101133	     -3.99139433	     28.31235185	      8.08508080	      0.49414376	      9.24652820	    -11.06349770	     -9.04702375	     -7.94228935	     -1.62376042	      8.25159192	      5.12762574	    -17.63088021	      6.79849062	     44.59121610	     90.00000001	      0.00000000	      0.00000000	     -1.39623443	    -11.53741625	    -11.30031284	     35.58035274	     90.00000001	      0.00000000	      0.00000000
      0.12000000	     -2.19321686	     -2.48616736	     -1.58849591	     -1.25769308	      0.85596374	     -0.37287056	     -9.83256262	      4.28668404	      2.16055840	      3.98876491	      6.38618154	      0.06961708	     12.61961056	      0.16082590	     -8.95860775	     28.17926629	     -7.47749657	     -4.80187900	     24.67184856	      8.31155423	      0.43060499	      8.93628021	     -9.92735548	     -8.95860775	     -8.10378072	     -1.67637014	      8.63445365	      5.69806864	    -17.66942766	      7.03783165	     45.21953058	     90.00000001	      0.00000000	      0.00000000	     -1.57002572	    -11.51093130	    -11.74317906	     35.09438189	     90.00000001	      0.00000000	      0.00000000
      0.13000000	     -2.12768245	     -2.53476615	     -2.00158344	     -1.24649916	      0.85478767	     -0.37249080	    -10.56350758	      4.24241522	      2.49411916	      4.33816304	      6.40440026	      0.07571523	     12.87391703	      0.22521502	     -8.88509771	     27.71020337	     -7.75996675	     -5.48562918	     21.30548579	      8.56118220	      0.37185088	      8.57654250	     -8.87776076	     -8.88509771	     -8.18406919	     -1.68323701	      9.03762462	      6.20511755	    -17.71121170	      7.29195140	     45.84844404	     90.00000001	      0.00000000	      0.00000000	     -1.75674676	    -11.46445372	    -12.14064822	     34.60284533	     90.00000001	      0.00000000	      0.00000000
      0.14000000	     -2.01836905	     -2.51420636	     -2.44000606	     -1.23519984	      0.85371812	     -0.37222142	    -11.31508563	      4.06641755	      2.87875937	      4.74155288	      6.46827975	      0.08275571	     13.06005394	      0.24765681	     -8.80899793	     27.10179598	     -7.93787267	     -6.10911356	     18.21292926	      8.77874994	      0.31787558	      8.13149049	     -7.98700198	     -8.80899793	     -8.32775930	     -1.76378682	      9.44463621	      6.66427815	    -17.76153835	      7.55306221	     46.47542429	     90.00000001	      0.00000000	      0.00000000	     -1.90508150	    -11.41237906	    -12.56306011	     34.11924813	     90.00000001	      0.00000000	      0.00000000
